# xmcd CD database file
#
# Track frame offsets:
#	150
#	15837
#	30412
#	46230
#	63960
#	81052
#	96587
#	112157
#	128417
#	142997
#	159567
#
# Disc length: 2310 seconds
#
# Revision: 1
# Processed by: cddbd v1.5.2PL0 Copyright (c) Steve Scherf et al.
# Submitted via: CDex 1.70beta3
#
DISCID=8009040b
DTITLE=Joseph Williams - Joseph Williams
DYEAR=1982
DGENRE=Melodic Rock
TTITLE0=What Is She Hiding
TTITLE1=That First Night
TTITLE2=Takin' It
TTITLE3=One More Chance
TTITLE4=I Didn't Do It
TTITLE5=This Girl
TTITLE6=Something Special
TTITLE7=Nothing's Lost
TTITLE8=Make Some Time
TTITLE9=Takin' It (Demo Version)
TTITLE10=Make Some Time (Alternative Version)
EXTD=YEAR: 1982
EXTT0=
EXTT1=
EXTT2=
EXTT3=
EXTT4=
EXTT5=
EXTT6=
EXTT7=
EXTT8=
EXTT9=
EXTT10=
PLAYORDER=
